<?xml version="1.0" standalone="no"?>
<!DOCTYPE svg PUBLIC "-//W3C//DTD SVG 20010904//EN" "http://www.w3.org/TR/2001/REC-SVG-20010904/DTD/svg10.dtd">
<!-- Created using Krita: https://krita.org -->
<svg xmlns="http://www.w3.org/2000/svg" 
    xmlns:xlink="http://www.w3.org/1999/xlink"
    xmlns:krita="http://krita.org/namespaces/svg/krita"
    xmlns:sodipodi="http://sodipodi.sourceforge.net/DTD/sodipodi-0.dtd"
    width="480pt"
    height="480pt"
    viewBox="0 0 480 480">
<defs/>
<circle id="shape0" transform="matrix(0.999999991900855 0 0 0.999999991900855 15.2400000458258 14.5200010411294)" r="212.4" cx="212.4" cy="212.4" fill="#211e1f" fill-rule="evenodd" stroke="#e3031a" stroke-width="9.6" stroke-linecap="square" stroke-linejoin="bevel"/><path id="shape03" transform="matrix(4.99077937390534 -0.764147201383757 0.764147201383757 4.99077937390534 12.2164521401309 62.3170541013588)" fill="#e3031a" fill-rule="evenodd" stroke="#000000" stroke-opacity="0" stroke-width="0" stroke-linecap="square" stroke-linejoin="bevel" d="M12.5214 1.8705L13.2733 0.248831L13.0272 0C10.0892 1.32168 2.52788 7.85468 0 10.6112L0.249275 10.8667L2.16473 10.4047C12.6127 21.2263 21.3048 31.9539 22.5765 33.3723C23.8481 34.7906 23.2582 35.7162 22.1342 36.715L23.3445 38.0913C24.3525 37.2217 25.2693 36.4206 26.5608 37.6964L29.2503 37.9963L28.9566 40.8153L31.7688 41.0593L31.3892 43.7741L34.0719 44.1067L33.7944 46.8277L36.5111 47.1913L36.1651 49.8551C47.9069 58.624 60.4937 77.3992 65.7072 81.983C68.0283 75.6896 68.389 65.7199 66.1832 56.8487C61.3222 51.0948 37.5074 29.0557 36.2035 27.524C35.2379 26.3002 35.9102 25.396 36.507 24.304L35.2404 23.2801C34.1298 24.1015 33.61 24.8235 32.186 24.1385C30.7621 23.4534 17.3055 8.38262 12.5214 1.8705Z"/><path id="shape04" transform="matrix(5.04894050943487 0 0 5.04894050943487 131.550875277876 81.3950897106951)" fill="none" stroke="#ffffff" stroke-width="8.16" stroke-linecap="round" stroke-linejoin="round" d="M38.0692 10.6884C38.0803 6.29616 38.0882 3.15886 38.093 1.27649C28.549 -0.709708 6.39511 -0.0796802 0.0672245 1.14984C0.0537796 3.81192 0.0313714 8.24872 0 14.4602L38.0692 43.0357C38.0597 49.2448 38.053 53.6799 38.0489 56.341C28.5479 58.1672 6.40871 57.5958 0.0672244 56.341C0.0537797 54.4318 0.0313719 51.2498 8.66504e-07 46.7951"/>
</svg>
